<?xml version="1.0" encoding="UTF-8"?>
<!DOCTYPE svg PUBLIC "-//W3C//DTD SVG 1.1//EN" "http://www.w3.org/Graphics/SVG/1.1/DTD/svg11.dtd">
<!-- Creator: CorelDRAW -->
<svg xmlns="http://www.w3.org/2000/svg" xml:space="preserve" width="1.70666in" height="1.70666in" version="1.1" style="shape-rendering:geometricPrecision; text-rendering:geometricPrecision; image-rendering:optimizeQuality; fill-rule:evenodd; clip-rule:evenodd"
viewBox="0 0 1707 1707"
 xmlns:xlink="http://www.w3.org/1999/xlink">
 <defs>
  <style type="text/css">
   <![CDATA[
    .fil0 {fill:black}
   ]]>
  </style>
 </defs>
 <g id="Layer_x0020_1">
  <metadata id="CorelCorpID_0Corel-Layer"/>
  <g id="_305185544">
   <g>
    <g>
     <path class="fil0" d="M670 1243l-524 0c-71,0 -128,-57 -128,-127l0 -525c0,-70 57,-127 128,-127l524 0c70,0 127,57 127,127l0 525c0,70 -57,127 -127,127zm-524 -733c-45,0 -81,37 -81,81l0 525c0,44 36,80 81,80l524 0c45,0 81,-36 81,-80l0 -525c0,-44 -36,-81 -81,-81l-524 0z"/>
    </g>
    <g>
     <path class="fil0" d="M1561 1243l-525 0c-70,0 -127,-57 -127,-127l0 -525c0,-70 57,-127 127,-127l525 0c70,0 127,57 127,127l0 525c0,70 -57,127 -127,127zm-525 -733c-44,0 -80,37 -80,81l0 525c0,44 36,80 80,80l525 0c45,0 81,-36 81,-80l0 -525c0,-44 -36,-81 -81,-81l-525 0z"/>
    </g>
    <g>
     <path class="fil0" d="M1299 510c-13,0 -24,-10 -24,-23l0 -232c0,-115 -93,-208 -208,-208l-427 0c-115,0 -209,93 -209,208 0,13 -10,24 -23,24 -13,0 -23,-11 -23,-24 0,-140 114,-255 255,-255l427 0c141,0 255,115 255,255l0 232c0,13 -10,23 -23,23z"/>
    </g>
    <g>
     <path class="fil0" d="M1067 1707l-427 0c-141,0 -255,-115 -255,-256l0 -231c0,-13 10,-24 23,-24 13,0 23,11 23,24l0 231c0,115 94,209 209,209l427 0c115,0 208,-94 208,-209 0,-12 11,-23 24,-23 13,0 23,11 23,23 0,141 -114,256 -255,256z"/>
    </g>
    <g>
     <path class="fil0" d="M408 420c-15,0 -29,-6 -39,-17l-77 -76c-16,-17 -21,-40 -12,-61 9,-21 28,-34 51,-34l154 0c22,0 42,13 51,34 9,21 4,44 -12,61l-77 76c-10,11 -24,17 -39,17zm-77 -141c-4,0 -7,1 -8,5 -2,4 -1,7 2,10l77 76c2,3 4,3 6,3 1,0 4,0 6,-3l77 -76c3,-3 3,-6 2,-10 -2,-4 -4,-5 -8,-5l-154 0z"/>
    </g>
    <g>
     <path class="fil0" d="M1376 1475l-154 0c-23,0 -42,-13 -51,-34 -9,-22 -4,-45 12,-61l77 -77c10,-10 24,-16 39,-16 15,0 29,6 39,16l77 77c16,16 21,39 12,61 -9,21 -29,34 -51,34zm-77 -141c-2,0 -4,0 -6,2l-77 77c-3,3 -4,6 -2,10 1,3 4,5 8,5l154 0c3,0 6,-2 8,-5 1,-4 1,-7 -2,-10l-77 -77c-2,-2 -5,-2 -6,-2z"/>
    </g>
    <g>
     <g>
      <path class="fil0" d="M1461 1097c-13,0 -23,-10 -23,-23l0 -279c0,-77 -62,-139 -139,-139 -77,0 -139,62 -139,139l0 279c0,13 -11,23 -24,23 -13,0 -23,-10 -23,-23l0 -279c0,-102 83,-186 186,-186 102,0 186,84 186,186l0 279c0,13 -11,23 -24,23z"/>
     </g>
     <g>
      <path class="fil0" d="M1461 958l-325 0c-13,0 -23,-11 -23,-23 0,-13 10,-24 23,-24l325 0c13,0 24,11 24,24 0,12 -11,23 -24,23z"/>
     </g>
    </g>
    <g>
     <g>
      <path class="fil0" d="M607 737l-398 0c-13,0 -23,-11 -23,-24 0,-12 10,-23 23,-23l398 0c13,0 23,11 23,23 0,13 -10,24 -23,24z"/>
     </g>
     <g>
      <g>
       <path class="fil0" d="M259 1097c-9,0 -17,-5 -21,-13 -6,-11 -2,-25 10,-31 271,-146 265,-336 265,-338 -1,-13 9,-24 22,-25 13,-1 24,9 25,22 0,9 7,223 -290,382 -4,2 -7,3 -11,3z"/>
      </g>
      <g>
       <path class="fil0" d="M557 1097c-3,0 -6,-1 -9,-2 -211,-89 -259,-279 -260,-287 -3,-12 4,-25 17,-28 12,-3 25,5 28,17l0 0c0,2 45,175 233,255 12,5 17,19 12,30 -3,9 -12,15 -21,15z"/>
      </g>
     </g>
     <g>
      <path class="fil0" d="M408 737c-13,0 -23,-11 -23,-24l0 -80c0,-13 10,-23 23,-23 13,0 23,10 23,23l0 80c0,13 -10,24 -23,24z"/>
     </g>
    </g>
   </g>
  </g>
 </g>
</svg>
