<?xml version="1.0" encoding="UTF-8"?>
<!DOCTYPE svg PUBLIC "-//W3C//DTD SVG 1.1//EN" "http://www.w3.org/Graphics/SVG/1.1/DTD/svg11.dtd">
<!-- Creator: CorelDRAW -->
<svg xmlns="http://www.w3.org/2000/svg" xml:space="preserve" width="1.70666in" height="1.70666in" version="1.1" style="shape-rendering:geometricPrecision; text-rendering:geometricPrecision; image-rendering:optimizeQuality; fill-rule:evenodd; clip-rule:evenodd"
viewBox="0 0 1707 1707"
 xmlns:xlink="http://www.w3.org/1999/xlink">
 <defs>
  <style type="text/css">
   <![CDATA[
    .fil0 {fill:url(#id0)}
   ]]>
  </style>
  <linearGradient id="id0" gradientUnits="userSpaceOnUse" x1="853.331" y1="0.011811" x2="853.331" y2="1706.65">
   <stop offset="0" style="stop-opacity:1; stop-color:#6666CC"/>
   <stop offset="0.509804" style="stop-opacity:1; stop-color:fuchsia"/>
   <stop offset="1" style="stop-opacity:1; stop-color:#FF6600"/>
  </linearGradient>
 </defs>
 <g id="Layer_x0020_1">
  <metadata id="CorelCorpID_0Corel-Layer"/>
  <path class="fil0" d="M548 1095c-60,-25 -106,-59 -142,-94 -36,32 -81,63 -136,93 -27,14 -50,-27 -22,-41 51,-28 92,-57 126,-86 -66,-78 -85,-154 -86,-159 -8,-30 38,-41 45,-11 0,1 17,68 75,138 79,-83 99,-161 104,-198l-303 0c-31,0 -31,-47 0,-47l176 0 0 -57c0,-30 46,-30 46,0l0 57 176 0c30,0 30,47 0,47l-48 0c-5,43 -26,136 -119,232 89,85 155,75 138,113 -5,12 -18,18 -30,13zm122 148l-239 0 0 208c0,115 94,209 209,209l427 0c107,0 196,-81 207,-185 -43,0 -86,8 -103,-34 -9,-22 -4,-45 12,-61l77 -77c21,-21 56,-21 78,0l77 77c35,35 10,95 -39,95l-55 0c-12,130 -121,232 -254,232l-427 0c-141,0 -255,-115 -255,-256l0 -208 -239 0c-71,0 -128,-57 -128,-127l0 -525c0,-70 57,-127 128,-127l524 0c70,0 127,57 127,127l0 525c0,70 -57,127 -127,127zm-524 -733c-45,0 -81,37 -81,81l0 525c0,44 36,80 81,80l524 0c45,0 81,-36 81,-80l0 -525c0,-44 -36,-81 -81,-81l-524 0zm1415 733l-525 0c-70,0 -127,-57 -127,-127l0 -525c0,-70 57,-127 127,-127l239 0 0 -209c0,-115 -93,-208 -208,-208l-427 0c-107,0 -196,81 -207,185 43,0 85,-8 103,34 9,21 4,44 -12,61l-77 76c-22,22 -57,22 -78,0l-77 -76c-35,-35 -10,-95 39,-95l55 0c11,-130 121,-232 254,-232l427 0c141,0 255,115 255,255l0 209 239 0c70,0 127,57 127,127l0 525c0,70 -57,127 -127,127zm-525 -733c-44,0 -80,37 -80,81l0 525c0,44 36,80 80,80l525 0c45,0 81,-36 81,-80l0 -525c0,-44 -36,-81 -81,-81l-525 0zm263 918c116,0 111,13 6,-92 -3,-3 -9,-3 -12,0 -104,104 -111,92 6,92zm-968 -1149c-8,0 -12,9 -6,15l77 76c3,4 9,4 12,0l77 -76c6,-6 2,-15 -6,-15l-154 0zm1130 818c-13,0 -23,-10 -23,-23l0 -116 -278 0 0 116c0,31 -47,31 -47,0l0 -279c0,-102 83,-186 186,-186 102,0 186,84 186,186l0 279c0,13 -11,23 -24,23zm-23 -186l0 -116c0,-77 -62,-139 -139,-139 -77,0 -139,62 -139,139l0 116 278 0z"/>
 </g>
</svg>
