<?xml version="1.0" encoding="UTF-8" standalone="no"?> <svg id="artwork" xmlns="http://www.w3.org/2000/svg"  fill="#D4A55F" width="64" height="64" viewBox="0 0 64 64"><title>translation</title><polygon points="44.2 46.96 49.821 46.96 47.023 39.547 44.2 46.96" style="fill:#D4A55F"/><path d="M60,30.49917H34a3.50424,3.50424,0,0,0-3.5,3.5v20a3.50424,3.50424,0,0,0,3.5,3.5H47.5459l8.62207,5.748a1.50072,1.50072,0,0,0,2.332-1.248v-4.5H60a3.50424,3.50424,0,0,0,3.5-3.5v-20A3.50424,3.50424,0,0,0,60,30.49917ZM54.0498,53.91909a1.50041,1.50041,0,0,1-1.93261-.874l-1.16419-3.085H43.05762L41.88086,53.05a1.49972,1.49972,0,1,1-2.80273-1.06836l6.20214-16.28418a1.8752,1.8752,0,0,1,3.48145-.04l6.16211,16.3291A1.49909,1.49909,0,0,1,54.0498,53.91909Z" style="fill:#D4A55F"/><path d="M60,.49917H4a3.50424,3.50424,0,0,0-3.5,3.5v42a3.50424,3.50424,0,0,0,3.5,3.5H6.5v7.5a1.50115,1.50115,0,0,0,2.44971,1.16114l10.58593-8.66114H26a1.5,1.5,0,0,0,0-3H19a1.50268,1.50268,0,0,0-.94971.33887L9.5,53.83413v-5.835a1.50008,1.50008,0,0,0-1.5-1.5H4a.50065.50065,0,0,1-.5-.5v-42a.50034.50034,0,0,1,.5-.5H60a.50065.50065,0,0,1,.5.5v22a1.5,1.5,0,0,0,3,0v-22A3.50424,3.50424,0,0,0,60,.49917Z"/><path d="M19,6.49917a12.5,12.5,0,1,0,12.5,12.5A12.51408,12.51408,0,0,0,19,6.49917Zm9.36975,11H24.4599a23.49759,23.49759,0,0,0-1.30157-7.02838A9.51174,9.51174,0,0,1,28.36975,17.49917Zm-9.368,10.99994h-.00043c-.66272-.07886-2.195-2.95447-2.45831-7.99994H21.457C21.19379,25.54452,19.66187,28.42013,19.00171,28.49911ZM16.543,17.49917c.26324-5.04535,1.79516-7.921,2.45532-7.99994h.00043c.66272.07886,2.195,2.95447,2.45831,7.99994Zm-1.7013-7.02838a23.49759,23.49759,0,0,0-1.30157,7.02838H9.63025A9.51174,9.51174,0,0,1,14.84167,10.47079ZM9.63025,20.49917H13.5401a23.49759,23.49759,0,0,0,1.30157,7.02838A9.5117,9.5117,0,0,1,9.63025,20.49917Zm13.52808,7.02838a23.49759,23.49759,0,0,0,1.30157-7.02838h3.90985A9.5117,9.5117,0,0,1,23.15833,27.52755Z"/><path d="M56,6.49917H35a1.5,1.5,0,0,0,0,3H56a1.5,1.5,0,1,0,0-3Z"/><path d="M56,14.49917H36a1.5,1.5,0,0,0,0,3H56a1.5,1.5,0,0,0,0-3Z"/><path d="M56,22.49917H47a1.5,1.5,0,0,0,0,3h9a1.5,1.5,0,0,0,0-3Z"/><path d="M27.5,35.99917a1.50008,1.50008,0,0,0-1.5-1.5H8a1.5,1.5,0,0,0,0,3H26A1.50007,1.50007,0,0,0,27.5,35.99917Z"/><path d="M8,40.49917a1.5,1.5,0,0,0,0,3H20a1.5,1.5,0,0,0,0-3Z"/></svg>