<?xml version="1.0" encoding="UTF-8"?>
<!DOCTYPE svg PUBLIC "-//W3C//DTD SVG 1.1//EN" "http://www.w3.org/Graphics/SVG/1.1/DTD/svg11.dtd">
<!-- Creator: CorelDRAW -->
<svg xmlns="http://www.w3.org/2000/svg" xml:space="preserve" width="512px" height="512px" style="shape-rendering:geometricPrecision; text-rendering:geometricPrecision; image-rendering:optimizeQuality; fill-rule:evenodd; clip-rule:evenodd"
viewBox="0 0 512 512"
 xmlns:xlink="http://www.w3.org/1999/xlink">
 <defs>
  <style type="text/css">
   <![CDATA[
    .fil0 {fill:url(#id0)}
   ]]>
  </style>
  <linearGradient id="id0" gradientUnits="userSpaceOnUse" x1="-0" y1="256" x2="511.999" y2="256">
   <stop offset="0" style="stop-color:#990000"/>
   <stop offset="1" style="stop-color:red"/>
  </linearGradient>
 </defs>
 <g id="Layer_x0020_1">
  <metadata id="CorelCorpID_0Corel-Layer"/>
  <path class="fil0" d="M214.877 444.135c-21.306,-24.7442 -31.656,-65.6352 -36.9651,-100.979 -35.0387,-5.22758 -75.5471,-15.5079 -100.027,-36.658 12.88,69.6746 67.6679,124.758 136.992,137.637zm201.121 -173.136c0,-10.4977 -2.35749,-22.9997 7.00042,-22.9997 9.3579,0 7.00042,12.502 7.00042,22.9997l33.9993 0c9.04609,0 9.04727,13.9996 0,13.9996l-12.6827 0c-2.35276,7.86026 -7.88388,22.6961 -19.2768,37.7328 16.4599,17.6079 31.2462,18.1926 25.9595,27.7666 -1.86024,3.3697 -6.13939,4.4008 -9.40042,2.6008 -10.2863,-5.7449 -18.7394,-12.5847 -25.669,-19.7457 -3.53151,3.63899 -22.3926,20.6457 -28.93,20.6457 -6.88467,0 -9.64609,-9.60948 -3.4004,-13.0996 9.37208,-5.24057 17.0186,-11.563 23.2371,-18.169 -11.4024,-15.0756 -16.9264,-29.9186 -19.2709,-37.7316 -6.32482,0 -19.5662,2.35749 -19.5662,-7.00042 0,-3.90001 3.1004,-7.00042 7.00042,-7.00042l33.9993 0.00118111zm-338.061 -26.4946c1.74686,-1.48937 3.62009,-2.95158 5.62088,-4.3819l-4.11734 -3.28111c-0.553939,2.60552 -1.05473,5.15907 -1.50355,7.66302zm-11.0953 -15.5044l-46.8427 0c-10.8,0 -19.9997,-9.19963 -19.9997,-19.9997l0 -138c0,-10.8 9.19963,-19.9997 19.9997,-19.9997l138 0c10.8,0 19.9997,9.19963 19.9997,19.9997l0 32.2832c96.7952,-39.3781 208.277,11.6044 243.046,110.717l70.9538 0c10.8,0 19.9997,9.19963 19.9997,19.9997l0 137.999c0,10.8 -9.19963,19.9997 -19.9997,19.9997l-49.6005 0 -32.1001 25.5001c-4.39844,3.57993 -11.2996,0.218505 -11.2996,-5.50041l0 -19.9997 -8.60318 0c-34.734,43.8344 -87.1621,69.0002 -144.396,69.0002 -102,0 -185,-83.4003 -185,-186.001 0,-13.8721 1.94882,-28.9607 5.84293,-45.9982zm111.157 -110.541l0 88.3621c5.39884,-35.3174 15.528,-75.0865 36.8741,-99.9204 -12.6331,2.39174 -24.952,6.25278 -36.8741,11.5583zm99.4881 -11.5843c21.2209,24.5528 31.4977,65.19 36.7147,100.344 12.1973,1.93701 23.9481,4.40434 35.0871,7.37364 1.51772,-0.386222 3.0945,-0.592915 4.70907,-0.592915l52.1104 0c-21.4442,-56.2549 -70.3833,-96.3794 -128.621,-107.125zm94.609 285.124l-18.0981 0c-10.8,0 -19.9997,-9.19963 -19.9997,-19.9997l0 -32.0966c-6.28585,1.37953 -12.8989,2.58426 -19.826,3.61182 -5.16616,34.943 -15.7158,76.427 -36.7442,100.695 36.6733,-6.60238 69.7549,-24.7312 94.668,-52.2108zm37.1812 -107c2.33387,6.6012 6.56104,16.3831 13.6867,26.5371 7.1575,-10.1422 11.3859,-19.9182 13.7044,-26.5371l-27.391 0zm-55.662 -56.9836c-2.47324,1.45748 -5.61734,1.31811 -5.61734,5.98466l0 137.999c0,3.1004 2.89962,6.00002 6.00002,6.00002l52.0006 0c9.36263,0 7.00042,13.2839 7.00042,19.5001l22.6005 -18.0001c1.2,-1.0004 2.8004,-1.5 4.39962,-1.5l51.9994 0c3.1004,0 6.00002,-2.89962 6.00002,-6.00002l0 -137.999c0,-3.1004 -2.89962,-6.00002 -6.00002,-6.00002 -12.3048,0 -130.158,-0.600002 -138.383,0.0153544zm-17.6953 -2.38702c-6.42994,-1.48465 -13.0536,-2.80276 -19.8355,-3.95198 3.84804,34.1552 3.80434,73.3325 -0.0425198,107.457 6.28112,-1.01929 12.2705,-2.19449 17.9564,-3.5256l0 -91.6078c0,-2.96339 0.693309,-5.80632 1.92166,-8.37168zm-240.865 23.6564c-53.6671,34.7304 10.5059,68.3506 80.9636,79.5711 -3.92245,-34.0714 -3.9697,-72.8152 -0.0425198,-106.913 -1.16221,0.185434 -2.29489,0.370867 -3.39568,0.553939 -3.68741,3.96852 -8.91381,6.50317 -14.5808,6.50317l-45.0001 0 0 19.9997c0,5.80277 -6.9012,9.02365 -11.4,5.49923l-6.54451 -5.21458zm-75.0557 -184.284c-3.1004,0 -6.00002,2.89962 -6.00002,6.00002l0 138c0,3.1004 2.89962,6.00002 6.00002,6.00002l52.0006 0c1.6004,0 3.1004,0.499608 4.39962,1.5l22.6005 18.0001c0,-6.21616 -2.36221,-19.5012 7.00042,-19.5012l51.9994 0.00118111c3.1004,0 6.00002,-2.89962 6.00002,-6.00002l0 -138c0,-3.1004 -2.89962,-6.00002 -6.00002,-6.00002l-138 0zm87.0605 94.0007l-36.1206 0 -11.439 28.5993c-3.40749,8.43782 -16.3595,3.31536 -13.0004,-5.20041 5.75081,-14.5808 35.1651,-90.0097 37.5757,-92.3932 3.48426,-3.44411 9.60712,-2.21339 11.4248,2.39292l36.0001 90.0003c3.35788,8.51577 -9.59412,13.6394 -13.0004,5.20041l-11.4402 -28.5993zm-30.5198 -14.0008l24.919 0 -12.4595 -31.1493 -12.4595 31.1493zm169.459 202.999c-18.456,0 -36.4879,-1.00394 -53.6387,-2.94922 10.0866,62.4037 32.7568,101.95 53.6399,101.95 21.3674,-0.00118111 43.858,-38.843 53.7769,-101.652 -16.4339,1.76693 -34.4033,2.65158 -53.7781,2.65158zm-55.6584 -17.1438c33.2635,4.03584 78.4195,4.15749 111.408,0.270473 4.063,-33.6556 4.10434,-77.8869 0.0413387,-111.589 -35.7828,-4.67127 -77.0246,-4.20356 -111.496,0.32008 -4.17639,33.7277 -4.13151,77.3176 0.0472442,110.998zm2.00079 -125.379c33.0781,-4.07718 73.2427,-4.44332 107.458,-0.275198 -9.90712,-62.5242 -32.4178,-101.201 -53.8006,-101.201 -20.8938,0 -43.5804,39.3698 -53.6576,101.476z"/>
 </g>
</svg>
