<?xml version="1.0" encoding="UTF-8" standalone="no"?>
<!-- Created with Inkscape (http://www.inkscape.org/) -->

<svg
   width="116.90039mm"
   height="82.140564mm"
   viewBox="0 0 116.90039 82.140564"
   version="1.1"
   id="svg1"
   xml:space="preserve"
   inkscape:version="1.4 (86a8ad7, 2024-10-11)"
   sodipodi:docname="Film i Väst logo.svg"
   xmlns:inkscape="http://www.inkscape.org/namespaces/inkscape"
   xmlns:sodipodi="http://sodipodi.sourceforge.net/DTD/sodipodi-0.dtd"
   xmlns="http://www.w3.org/2000/svg"
   xmlns:svg="http://www.w3.org/2000/svg"><sodipodi:namedview
     id="namedview1"
     pagecolor="#ffffff"
     bordercolor="#000000"
     borderopacity="0.25"
     inkscape:showpageshadow="2"
     inkscape:pageopacity="0.0"
     inkscape:pagecheckerboard="0"
     inkscape:deskcolor="#d1d1d1"
     inkscape:document-units="mm"
     inkscape:zoom="0.76167929"
     inkscape:cx="186.43017"
     inkscape:cy="160.82884"
     inkscape:window-width="1920"
     inkscape:window-height="1057"
     inkscape:window-x="-8"
     inkscape:window-y="-8"
     inkscape:window-maximized="1"
     inkscape:current-layer="svg1" /><defs
     id="defs1" /><g
     id="g1"
     transform="matrix(1.1580294,0,0,1.1580294,-273.66807,-145.7012)"><path
       class="shape"
       fill="#ffffff"
       d="m 307.45812,143.19106 29.81178,-17.37284 v 11.30776 l -29.81178,17.37284 z m 0,21.07373 29.81178,-17.37283 v 11.30776 l -29.81178,17.37284 z"
       id="path1"
       style="fill:#1a1819;fill-opacity:1;stroke-width:0.961397" /><path
       class="shape"
       fill="#8e8e8e"
       d="m 307.45812,143.19106 -9.86865,-5.65389 v 11.30777 l 9.86865,5.65388 z m 0,21.07181 -9.86865,-5.65388 v 11.30776 l 9.86865,5.65388 z m 0,21.17891 -9.86865,-5.65388 v 11.30776 l 9.86865,5.65389 z"
       id="path2"
       style="fill:#8c8c8c;fill-opacity:1;stroke-width:0.961397" /><path
       class="shape"
       fill="#ffffff"
       d="m 307.45812,185.44178 9.86855,-5.65388 v 11.30776 l -9.86855,5.65389 z"
       id="path3"
       style="fill:#1a1819;fill-opacity:1;stroke-width:0.961397" /><path
       class="text"
       fill="#fefefe"
       d="m 284.12626,159.66931 c -1.59371,0 -2.64846,1.14849 -2.64846,2.92976 v 5.88289 h -2.41407 v -6.14073 c -0.0235,-1.68754 -0.9141,-2.67192 -2.2266,-2.67192 -1.40633,0 -2.76575,0.77345 -2.76575,2.92976 v 5.88289 h -2.41406 v -10.94551 h 2.41406 v 1.64072 c 0.75009,-1.50007 2.55482,-1.87511 3.44546,-1.87511 1.75782,0 2.81247,0.77354 3.44536,2.17978 1.00783,-1.89847 2.69537,-2.17978 3.67975,-2.17978 2.71873,0 4.2188,1.75792 4.2188,4.87515 v 6.30475 h -2.41407 v -6.09382 c 0,-1.711 -0.91409,-2.71883 -2.32042,-2.71883 z m -18.02323,8.81198 v -16.89877 h 2.41407 v 16.89877 z m -3.14367,-10.94551 v 10.94551 h -2.39061 v -10.94551 z m -2.81257,-4.42974 c 0,-0.86727 0.75008,-1.52352 1.61726,-1.52352 0.9141,0 1.59381,0.65625 1.59381,1.52352 0,0.86718 -0.67971,1.52343 -1.59381,1.52343 -0.86718,0 -1.61726,-0.65625 -1.61726,-1.52343 z m -11.28132,15.37448 v -16.14879 h 9.58609 v 2.29698 h -7.10165 v 4.78131 h 5.62504 v 2.27352 h -5.62504 v 6.79698 z m 37.84771,6.28638 v 4.14843 h 2.32043 v 1.99231 h -2.32043 v 8.9532 h -2.41407 v -8.9532 h -1.96875 v -1.99231 h 1.96875 v -4.14843 z m -9.42861,10.71199 -1.47661,-0.35149 c -2.34379,-0.63288 -3.18761,-1.78127 -3.0235,-3.56265 0.11719,-1.61716 1.92193,-2.88284 3.91413,-2.88284 1.92193,0 3.86723,0.89064 3.98442,3.23443 h -2.29687 c -0.0937,-0.82027 -0.84382,-1.17185 -1.59381,-1.17185 -0.63279,0 -1.28904,0.23439 -1.54689,0.60933 -0.18747,0.30477 -0.21093,0.63289 -0.0937,0.98447 0.16401,0.44532 0.74998,0.67962 1.33595,0.84373 l 1.68755,0.42186 c 2.34379,0.56251 2.85938,2.1094 2.85938,3.18761 0,2.1094 -1.85155,3.3047 -4.35945,3.3047 -2.06249,0 -4.12507,-1.26568 -4.19535,-3.58601 h 2.2266 c 0.11719,0.93756 0.86718,1.57035 2.15632,1.57035 1.10156,0 1.94529,-0.49214 1.94529,-1.3125 0,-0.72663 -0.70317,-1.10157 -1.52343,-1.28914 z m -9.57062,4.38167 v -1.57035 c -0.74998,1.1953 -2.27351,1.80464 -3.67975,1.80464 -2.92976,0 -5.55476,-2.2266 -5.55476,-5.71878 0,-3.49227 2.625,-5.69541 5.55476,-5.69541 1.3125,0 2.92977,0.53905 3.67975,1.78127 v -1.54688 h 2.39071 v 10.94551 z m -6.75016,-5.50795 c 0,2.01567 1.54698,3.39845 3.35162,3.39845 1.78137,0 3.37508,-1.24213 3.37508,-3.39845 0,-2.13286 -1.73436,-3.32816 -3.37508,-3.32816 -1.80464,0 -3.35162,1.3125 -3.35162,3.32816 z m 0.16411,-9.07049 c 0,-0.82036 0.67971,-1.4297 1.52343,-1.4297 0.82036,0 1.47661,0.60934 1.47661,1.4297 0,0.82036 -0.65625,1.45315 -1.47661,1.45315 -0.84372,0 -1.52343,-0.63279 -1.52343,-1.45315 z m 4.00787,0 c 0,-0.82036 0.67971,-1.4297 1.52353,-1.4297 0.82026,0 1.49997,0.60934 1.49997,1.4297 0,0.82036 -0.67971,1.45315 -1.49997,1.45315 -0.84382,0 -1.52353,-0.63279 -1.52353,-1.45315 z m -18.97798,-1.57054 h 2.60154 l 3.44545,12.00026 3.46873,-12.00026 h 2.57818 l -4.87506,16.14869 h -2.32033 z m -7.02303,5.20404 v 10.94551 h -2.39067 v -10.94551 z m -2.81255,-4.42983 c 0,-0.86718 0.75001,-1.52343 1.61721,-1.52343 0.91408,0 1.59378,0.65625 1.59378,1.52343 0,0.86728 -0.6797,1.52353 -1.59378,1.52353 -0.8672,0 -1.61721,-0.65625 -1.61721,-1.52353 z"
       id="path4"
       style="fill:#1a1819;fill-opacity:1;stroke-width:0.961397" /></g></svg>
